# xmcd
#
# Track frame offsets:
#  150
#  12824
#  23398
#  36855
#  50397
#  63108
#  78151
#  91470
#  103648
#  115226
#  128650
#  140475
#  151283
#  163798
#  173786
#  186101
#
# Disc length: 2634 seconds
#
# Revision: 0
# Processed by: cddbd v1.5.2PL0 Copyright (c) Steve Scherf et al.
# Submitted via: AltoMP3_Maker 3.0
#
DISCID=bd0a4810
DTITLE=Various Artist - Country Classics Vol 3
DYEAR=1900
DGENRE=
TTITLE0=Rose Garden
TTITLE1=Divorce Me C.O.D
TTITLE2=Tumbling Tumbleweeds
TTITLE3=Pecos Bill
TTITLE4=I Really Don't Want To Know
TTITLE5=Deep Elem Blues
TTITLE6=Any Old Time
TTITLE7=The Prisoners Song
TTITLE8=I Could Still Tell You More
TTITLE9=You Can't Break My Heart
TTITLE10=Oceans Of Tears
TTITLE11=There's No Right Way To Do Me Wrong
TTITLE12=Oklahoma Hills
TTITLE13=The Thingamajig
TTITLE14=One-Two-Three-Skid-Doo
TTITLE15=Hog Tied Over You
EXTD=
EXTT0=
EXTT1=
EXTT2=
EXTT3=
EXTT4=
EXTT5=
EXTT6=
EXTT7=
EXTT8=
EXTT9=
EXTT10=
EXTT11=
EXTT12=
EXTT13=
EXTT14=
EXTT15=
PLAYORDER=
